<svg width="19" height="18" viewBox="0 0 19 18" fill="none" xmlns="http://www.w3.org/2000/svg">
<path d="M4.00876 2.91458C5.59664 1.59532 7.68497 0.794434 9.97267 0.794434C14.9432 0.794434 18.9727 4.57529 18.9727 9.2392C18.9727 11.0337 18.3761 12.6974 17.359 14.0654L14.9227 9.2392H17.1727C17.1727 5.50808 13.9491 2.48339 9.97267 2.48339C7.95278 2.48339 6.12718 3.26382 4.81965 4.52087L4.00876 2.91458ZM15.9365 15.5638C14.3486 16.8831 12.2604 17.684 9.97267 17.684C5.0021 17.684 0.972656 13.9032 0.972656 9.2392C0.972656 7.44475 1.56917 5.78101 2.58626 4.41303L5.02265 9.2392H2.77265C2.77265 12.9704 5.9962 15.995 9.97267 15.995C11.9925 15.995 13.8181 15.2146 15.1256 13.9576L15.9365 15.5638ZM11.2454 11.6278L8.69989 9.2392L6.15428 11.6278L4.88149 10.4335L8.69989 6.85067L11.2454 9.2392L13.791 6.85067L15.0638 8.04494L11.2454 11.6278Z" fill="white"/>
</svg>
