<svg width="104" height="105" viewBox="0 0 104 105" fill="none" xmlns="http://www.w3.org/2000/svg">
<circle cx="52" cy="52" r="52" transform="matrix(-1 0 0 1 104 0.47998)" fill="#3C3C3C" fill-opacity="0.6"/>
<g clip-path="url(#clip0_491_15333)">
<path d="M79.3407 59.4368C78.0012 64.8106 75.0983 69.6664 70.999 73.3903C66.8996 77.1142 61.788 79.5387 56.3107 80.3573C50.8333 81.176 45.2362 80.3519 40.2272 77.9893C35.2182 75.6268 31.0224 71.8318 28.1703 67.0845C25.3182 62.3371 23.938 56.8506 24.2043 51.3188C24.4705 45.7871 26.3712 40.4585 29.6661 36.007C32.9609 31.5555 37.5018 28.181 42.7145 26.3104C47.9273 24.4398 53.5776 24.1571 58.9511 25.498C66.1549 27.2956 72.3498 31.8809 76.1735 38.2454C79.9971 44.6099 81.1364 52.2324 79.3407 59.4368Z" fill="#F7931A"/>
<path d="M64.115 48.7622C64.6554 45.1628 61.903 43.228 58.137 41.9372L59.3578 37.0611L56.3758 36.3218L55.1858 41.0692C54.4018 40.8746 53.5968 40.6913 52.796 40.5093L53.9944 35.731L51.0138 34.9918L49.7916 39.8666C49.142 39.7196 48.505 39.574 47.8876 39.4214V39.406L43.7744 38.3841L42.9806 41.5536C42.9806 41.5536 45.194 42.0576 45.1464 42.0898C45.5582 42.1377 45.9347 42.3456 46.1948 42.6685C46.4548 42.9914 46.5775 43.4035 46.5366 43.8161L45.145 49.3712C45.2508 49.3972 45.3546 49.4305 45.4558 49.4707L45.1408 49.3937L43.1906 57.1749C43.1021 57.4488 42.9084 57.6763 42.6522 57.8075C42.396 57.9388 42.0982 57.963 41.8242 57.8749C41.8536 57.9183 39.657 57.3372 39.657 57.3372L38.1758 60.735L42.0566 61.6983C42.779 61.8789 43.486 62.0664 44.1832 62.2442L42.9498 67.1764L45.929 67.9157L47.1512 63.0367C47.9646 63.2565 48.7556 63.4567 49.5312 63.6499L48.3132 68.5065L51.2952 69.2457L52.5286 64.3233C57.6148 65.2809 61.4382 64.8945 63.0482 60.3165C64.346 56.6303 62.9838 54.505 60.3084 53.119C61.3352 52.9148 62.2656 52.3766 62.9544 51.5883C63.6433 50.7999 64.0518 49.8058 64.1164 48.7609L64.115 48.7622ZM57.3012 58.2711C56.38 61.9573 50.143 59.9636 48.1214 59.4652L49.7594 52.9315C51.781 53.4341 58.2644 54.4281 57.3012 58.2711ZM58.2238 48.7091C57.3838 52.0621 52.1926 50.3583 50.5098 49.9411L51.9952 44.0148C53.6752 44.4348 59.1002 45.2119 58.2252 48.7091H58.2238Z" fill="white"/>
</g>
<defs>
<clipPath id="clip0_491_15333">
<rect width="56" height="56.007" fill="white" transform="translate(24.1797 24.6591)"/>
</clipPath>
</defs>
</svg>
