<svg width="29" height="29" viewBox="0 0 29 29" fill="none" xmlns="http://www.w3.org/2000/svg">
    <path d="M28.5663 18.0065C26.6289 25.7785 18.7546 30.503 10.9937 28.5656C3.22148 26.6282 -1.50303 18.7543 0.434418 10.9935C2.37176 3.22148 10.2346 -1.50303 18.0068 0.434419C25.7677 2.36043 30.5037 10.2344 28.5663 18.0065Z" fill="url(#paint0_linear_3088_29812)"/>
    <path d="M21.4055 13.4772C21.6887 11.5514 20.2274 10.5092 18.2109 9.81817L18.868 7.20137L17.282 6.80488L16.6477 9.35371C16.2285 9.25176 15.7981 9.14981 15.3676 9.05918L16.002 6.49902L14.416 6.10254L13.7703 8.70801C13.4191 8.62871 13.0793 8.54942 12.7508 8.47012V8.45879L10.5531 7.91504L10.134 9.61426C10.134 9.61426 11.3121 9.88614 11.2895 9.89746C11.9352 10.0561 12.0484 10.4865 12.0258 10.8264L11.2781 13.8057C11.3234 13.817 11.3801 13.8283 11.448 13.8623C11.3914 13.851 11.3348 13.8397 11.2781 13.817L10.2359 17.9858C10.1566 18.1783 9.95274 18.4729 9.51094 18.3596C9.52227 18.3822 8.35547 18.0764 8.35547 18.0764L7.5625 19.9002L9.63555 20.4213C10.0207 20.5233 10.3945 20.6139 10.7684 20.7158L10.1113 23.3553L11.6973 23.7518L12.3543 21.135C12.7848 21.2483 13.2152 21.3615 13.6231 21.4635L12.9773 24.069L14.5633 24.4654L15.2203 21.826C17.9391 22.3358 19.9781 22.1318 20.8277 19.6736C21.5188 17.7025 20.7938 16.5584 19.3664 15.8107C20.4199 15.5729 21.2016 14.8818 21.4055 13.4772ZM17.7691 18.5748C17.282 20.5459 13.9516 19.4811 12.8754 19.2092L13.7477 15.7088C14.8238 15.9807 18.2902 16.5131 17.7691 18.5748ZM18.2676 13.4432C17.8145 15.2443 15.0504 14.3268 14.1555 14.1002L14.9484 10.9283C15.8434 11.1549 18.732 11.574 18.2676 13.4432Z" fill="white"/>
    <defs>
    <linearGradient id="paint0_linear_3088_29812" x1="1449.22" y1="-0.696" x2="1449.22" y2="2899.71" gradientUnits="userSpaceOnUse">
    <stop stop-color="#F9AA4B"/>
    <stop offset="1" stop-color="#F7931A"/>
    </linearGradient>
    </defs>
    </svg>
    