<svg width="13" height="16" viewBox="0 0 13 16" fill="none" xmlns="http://www.w3.org/2000/svg">
<g clip-path="url(#clip0_1007_17409)">
<path fill-rule="evenodd" clip-rule="evenodd" d="M4.78524 0.276523C5.16025 2.04351 5.96351 3.6243 6.80581 5.05534C6.9312 4.847 7.0637 4.63345 7.19975 4.41599C7.95568 3.1998 8.81691 1.81303 9.1517 0.215323C9.18246 0.0655778 9.31732 -0.0268734 9.45336 0.00698196C9.55037 0.0317224 9.62135 0.113757 9.64264 0.21402C9.9798 1.80392 10.8398 3.19069 11.5958 4.40818C12.347 5.61916 13 6.67258 13 7.67392C13 9.53206 12.0619 10.7235 10.8623 11.2457C10.4447 11.428 9.99518 11.5269 9.54327 11.5438C8.92338 17.7055 0 17.4776 0 10.8576C0 8.1492 3.82228 4.86392 4.78524 0.276523ZM7.10747 5.55926C8.34844 7.6023 9.57639 9.33023 9.57639 10.8576C9.57639 10.9019 9.57403 10.9436 9.57403 10.9865C9.95259 10.9657 10.3276 10.8811 10.6754 10.7287C11.6963 10.2847 12.4937 9.26642 12.4937 7.67392C12.4937 6.84316 11.8821 5.85615 11.1782 4.72069C10.5405 3.69201 9.83074 2.54744 9.39658 1.2414C8.9636 2.55525 8.25262 3.69982 7.6138 4.7272C7.43753 5.01367 7.26481 5.29102 7.10747 5.55926ZM1.87032 10.0881C1.84666 9.79378 2.04304 9.53466 2.3104 9.50732C2.57776 9.47997 2.81318 9.69743 2.83802 9.99171C2.89835 10.7027 3.03913 11.3563 3.31004 11.9215C3.57148 12.4671 3.95832 12.9358 4.51906 13.2978C4.75093 13.4463 4.82783 13.7744 4.69297 14.0283C4.55692 14.2835 4.25999 14.3682 4.0293 14.2197C3.29939 13.7483 2.79307 13.1363 2.45118 12.4202C2.11521 11.7222 1.94249 10.9331 1.87032 10.0881Z" fill="white"/>
</g>
<defs>
<clipPath id="clip0_1007_17409">
<rect width="13" height="16" fill="white"/>
</clipPath>
</defs>
</svg>
