<svg width="29" height="29" viewBox="0 0 29 29" fill="none" xmlns="http://www.w3.org/2000/svg">
    <g clip-path="url(#clip0_3088_29815)">
    <path d="M28.5656 18.0075C27.872 20.79 26.3687 23.3044 24.2458 25.2326C22.123 27.1608 19.4759 28.4162 16.6394 28.84C13.8029 29.2639 10.9044 28.8372 8.31047 27.6139C5.71654 26.3906 3.54368 24.4256 2.06671 21.9675C0.589732 19.5093 -0.125013 16.6685 0.0128637 13.8041C0.15074 10.9398 1.13505 8.1807 2.84129 5.87575C4.54754 3.57081 6.89909 1.82355 9.59854 0.854972C12.298 -0.113609 15.2241 -0.260011 18.0067 0.434281C21.7373 1.36508 24.9454 3.73929 26.9255 7.03478C28.9056 10.3303 29.4956 14.2772 28.5656 18.0075Z" fill="white"/>
    <path d="M14.4989 4.38379L14.3633 4.84483V18.2259L14.4989 18.3615L20.7107 14.6898L14.4989 4.38379Z" fill="#343434"/>
    <path d="M14.497 4.38379L8.28516 14.6898L14.497 18.3615V4.38379Z" fill="#8C8C8C"/>
    <path d="M14.4987 19.5367L14.4219 19.6302V24.3965L14.4987 24.6197L20.7142 15.8672L14.4987 19.5367Z" fill="#3C3C3B"/>
    <path d="M14.497 24.6197V19.5367L8.28516 15.8672L14.497 24.6197Z" fill="#8C8C8C"/>
    <path d="M14.4961 18.3614L20.7079 14.6897L14.4961 11.8662V18.3614Z" fill="#141414"/>
    <path d="M8.28516 14.6897L14.497 18.3614V11.8662L8.28516 14.6897Z" fill="#393939"/>
    </g>
    <defs>
    <clipPath id="clip0_3088_29815">
    <rect width="29" height="29" fill="white"/>
    </clipPath>
    </defs>
    </svg>
    