<svg width="106" height="107" viewBox="0 0 106 107" fill="none" xmlns="http://www.w3.org/2000/svg">
<circle cx="53" cy="53" r="53" transform="matrix(-1 0 0 1 106 0.47998)" fill="#3C3C3C" fill-opacity="0.6"/>
<g clip-path="url(#clip0_491_15305)">
<path d="M79.7274 59.8201C78.388 65.1932 75.485 70.0485 71.3857 73.7719C67.2863 77.4953 62.1748 79.9196 56.6974 80.7381C51.22 81.5566 45.6229 80.7326 40.6139 78.3703C35.605 76.0081 31.4091 72.2136 28.557 67.4669C25.7049 62.7201 24.3247 57.2343 24.591 51.7032C24.8572 46.1721 26.7579 40.8442 30.0528 36.3932C33.3476 31.9423 37.8885 28.5683 43.1012 26.6979C48.314 24.8276 53.9643 24.5449 59.3378 25.8856C66.5416 27.683 72.7366 32.2677 76.5602 38.6314C80.3838 44.9951 81.5231 52.6167 79.7274 59.8201Z" fill="white"/>
<path d="M52.5626 33.5122L52.3008 34.4025V60.2419L52.5626 60.5036L64.5578 53.4135L52.5626 33.5122Z" fill="#343434"/>
<path d="M52.5616 33.5122L40.5664 53.4135L52.5616 60.5036V33.5122Z" fill="#8C8C8C"/>
<path d="M52.5644 62.7739L52.416 62.9545V72.1583L52.5644 72.5894L64.5666 55.688L52.5644 62.7739Z" fill="#3C3C3B"/>
<path d="M52.5616 72.5894V62.7739L40.5664 55.688L52.5616 72.5894Z" fill="#8C8C8C"/>
<path d="M52.5605 60.5031L64.5557 53.413L52.5605 47.9607V60.5031Z" fill="#141414"/>
<path d="M40.5664 53.413L52.5616 60.5032V47.9607L40.5664 53.413Z" fill="#393939"/>
</g>
<defs>
<clipPath id="clip0_491_15305">
<rect width="56" height="56" fill="white" transform="translate(24.5664 25.0471)"/>
</clipPath>
</defs>
</svg>
