<svg width="65" height="25" viewBox="0 0 65 25" fill="none" xmlns="http://www.w3.org/2000/svg">
<path d="M62.2279 19.0001L59.0339 14.553L55.8153 19.0001H53.2355L57.7562 12.784L53.3583 6.76454H55.9381L59.0339 11.0642L62.105 6.76454H64.6848L60.3115 12.8332L64.8076 19.0001H62.2279Z" fill="#ABABB9"/>
<path d="M38.7557 16.6414V9.12319L41.1144 6.76454H45.8808L47.6989 8.36154V1.45756H49.9839V19.0001H47.7972V16.8871L45.6842 19.0001H41.1144L38.7557 16.6414ZM45.3157 17.0099L47.6989 14.6022V10.6465L45.5614 8.75465H42.1708L41.0406 9.88484V15.8798L42.1708 17.0099H45.3157Z" fill="#ABABB9"/>
<path d="M3.11065 8.73008H0.899414V6.76454H3.11065V4.13562L5.37103 1.87524H9.22841V3.81622H6.3538L5.3956 4.77442V6.76454H9.22841V8.73008H5.3956V19.0001H3.11065V8.73008Z" fill="#ABABB9"/>
<path d="M27.2136 19.0959L24.0196 14.6489L20.801 19.0959H18.2212L22.742 12.8799L18.3441 6.86042H20.9239L24.0196 11.16L27.0908 6.86042H29.6705L25.2972 12.929L29.7934 19.0959H27.2136Z" fill="white"/>
<path d="M11.7188 0.682617H17.1053V2.76639H13.9552V22.6008H17.1053V24.6846H11.7188V0.682617Z" fill="white"/>
<path d="M30.3344 24.6846V22.6008H33.4604V2.76639H30.3344V0.682617H35.7208V24.6846H30.3344Z" fill="white"/>
</svg>
