<svg width="18" height="18" viewBox="0 0 18 18" fill="none" xmlns="http://www.w3.org/2000/svg">
<path fill-rule="evenodd" clip-rule="evenodd" d="M13.5427 1.31612C13.345 1.17829 13.1208 1.11818 12.8923 1.16363C12.6638 1.20908 12.4704 1.33225 12.3327 1.52433L11.5607 2.61375C11.2867 2.49205 11.0011 2.39968 10.6964 2.32343C10.3916 2.24719 10.106 2.18561 9.80128 2.14015L9.55663 0.714957C9.51268 0.470093 9.38963 0.292677 9.2109 0.15485C9.01313 0.0170223 8.80365 -0.0284314 8.56047 0.0170223L6.77616 0.338131C6.54763 0.383585 6.36891 0.490621 6.21655 0.688565C6.07885 0.886508 6.01879 1.09618 6.0642 1.33958L6.29273 2.64161C6.00267 2.76331 5.73312 2.90113 5.47383 3.06389C5.21453 3.21638 4.9611 3.39966 4.7311 3.57708L3.52106 2.74278C3.32329 2.60495 3.1138 2.54484 2.88527 2.59029C2.65674 2.63574 2.46337 2.75891 2.32566 2.95685L1.2958 4.42897C1.1581 4.62691 1.09804 4.85125 1.14345 5.07998C1.18886 5.32485 1.31192 5.50226 1.50969 5.64009L2.59814 6.4128C2.47655 6.68699 2.38426 6.97291 2.30808 7.27789C2.2319 7.58287 2.17038 7.86879 2.12496 8.17377L0.702502 8.41863C-0.504613 8.6459 0.178052 10.3775 0.326011 11.2016C0.371425 11.4303 0.478365 11.6092 0.671738 11.7617C0.869506 11.8995 1.07899 11.9596 1.32217 11.9142L2.62304 11.6854C2.74464 11.9758 2.88234 12.2455 3.04495 12.5051C3.1973 12.7646 3.38042 13.0183 3.55768 13.2631L2.72413 14.4596C2.58642 14.6575 2.52636 14.8672 2.57177 15.0959C2.61719 15.3247 2.73878 15.5182 2.93215 15.656L4.41614 16.6985C4.61391 16.8364 4.83804 16.8818 5.06657 16.8364C5.2951 16.7909 5.48848 16.6839 5.64083 16.4903L6.41432 15.3863C6.68827 15.5079 6.97393 15.6003 7.27864 15.6766C7.58335 15.7528 7.86755 15.8144 8.17372 15.8598L8.41837 17.285C8.46378 17.5299 8.58684 17.7073 8.76409 17.8452C8.96186 17.983 9.17135 18.0284 9.41453 17.983L11.1988 17.6619C11.4274 17.6164 11.6061 17.5094 11.7584 17.3158C11.8961 17.1179 11.9562 16.9082 11.9108 16.6648L11.6823 15.3628C11.9723 15.2411 12.2419 15.1033 12.5012 14.9405C12.7605 14.788 13.0154 14.6091 13.2585 14.4273L14.4539 15.2616C14.6517 15.3994 14.8612 15.4596 15.1044 15.4141C15.349 15.3687 15.5263 15.2455 15.664 15.0534L16.7056 13.5666C16.8433 13.3687 16.8887 13.1444 16.8433 12.9156C16.7979 12.6869 16.6909 12.4933 16.4931 12.3408L15.3886 11.5828C15.5102 11.3086 15.6025 11.0227 15.6786 10.7177C15.7548 10.4127 15.8163 10.1268 15.8618 9.82183L17.2857 9.57697C17.5303 9.53152 17.7076 9.40835 17.8453 9.22654C17.983 9.02859 18.0284 8.81892 17.983 8.57552L17.6622 6.78963C17.6168 6.56089 17.5098 6.38201 17.3164 6.22952C17.1187 6.09169 16.9092 6.03158 16.666 6.07703L15.3651 6.30577C15.2435 6.03158 15.1058 5.76179 14.9432 5.48613C14.7909 5.21194 14.6078 4.97295 14.4305 4.74274L15.2641 3.53162C15.4018 3.33368 15.4618 3.124 15.4164 2.89527C15.371 2.66654 15.2479 2.47299 15.056 2.33516L13.5838 1.29999L13.5427 1.31612ZM7.19514 7.63712L8.46525 8.84678L10.6524 6.62394C10.8692 6.40401 11.004 6.22659 11.2721 6.50224L12.1379 7.38933C12.4235 7.67084 12.4074 7.83506 12.1393 8.09606L8.9604 11.2192C8.39493 11.7734 8.49454 11.8071 7.92029 11.2382L5.73752 9.06818C5.61886 8.93915 5.63058 8.80865 5.76096 8.67816L6.76591 7.63419C6.9168 7.4773 7.03839 7.48756 7.19514 7.63712ZM8.99995 3.47151C12.05 3.47151 14.5243 5.94654 14.5243 9.00073C14.5243 12.0535 12.0514 14.53 8.99995 14.53C5.94847 14.53 3.47564 12.0535 3.47564 8.99927C3.47564 5.94654 5.94993 3.47151 8.99995 3.47151Z" fill="white"/>
</svg>
