<svg width="16" height="20" viewBox="0 0 16 20" fill="none" xmlns="http://www.w3.org/2000/svg">
<path d="M8.00001 2.88745L3.60023 7.28722C1.1703 9.7171 1.1703 13.6568 3.60023 16.0868C6.03015 18.5166 9.96987 18.5166 12.3997 16.0868C14.8297 13.6568 14.8297 9.7171 12.3997 7.28722L8.00001 2.88745ZM8.00001 0.373291L13.6568 6.03014C16.7811 9.15435 16.7811 14.2197 13.6568 17.3438C10.5326 20.468 5.46734 20.468 2.34314 17.3438C-0.781048 14.2197 -0.781048 9.15435 2.34314 6.03014L8.00001 0.373291Z" fill="white"/>
<path d="M7.91224 11.2102L7.91241 7.24161H6.21697L6.2168 11.9269L9.46239 15.2416L10.6612 14.0175L7.91224 11.2102Z" fill="white"/>
</svg>
