<svg width="18" height="19" viewBox="0 0 18 19" fill="none" xmlns="http://www.w3.org/2000/svg">
<path d="M3.30392 2.51098C6.83913 -0.385567 12.0641 -0.183895 15.364 3.11602C18.8787 6.63074 18.8787 12.3292 15.364 15.844C11.8492 19.3586 6.15075 19.3586 2.63604 15.844C0.363992 13.5719 -0.439311 10.3873 0.226103 7.46997L0.295079 7.18852L2.03606 7.64681C1.40831 10.0407 2.03256 12.6949 3.90883 14.5712C6.7206 17.3829 11.2793 17.3829 14.0911 14.5712C16.9029 11.7594 16.9029 7.20058 14.0911 4.38881C11.5553 1.85293 7.59835 1.60411 4.78365 3.64235L4.58457 3.79182L5.49982 4.70701L1.36324 5.6616L2.31784 1.52503L3.30392 2.51098ZM9.90001 4.07998V5.87998H12.15V7.67997H7.20001C6.95146 7.67997 6.74999 7.88148 6.74999 8.12997C6.74999 8.35092 6.90918 8.53461 7.11911 8.57268L7.20001 8.57997H10.8C12.0426 8.57997 13.05 9.58734 13.05 10.83C13.05 12.0726 12.0426 13.08 10.8 13.08H9.90001V14.88H8.10001V13.08H5.84999V11.28H10.8C11.0485 11.28 11.25 11.0785 11.25 10.83C11.25 10.609 11.0908 10.4253 10.8809 10.3873L10.8 10.38H7.20001C5.95735 10.38 4.94999 9.3726 4.94999 8.12997C4.94999 6.88734 5.95735 5.87998 7.20001 5.87998H8.10001V4.07998H9.90001Z" fill="white"/>
</svg>
