<svg width="19" height="19" viewBox="0 0 19 19" fill="none" xmlns="http://www.w3.org/2000/svg">
<path d="M7.13055 9.95366L4.76213 12.3221L7.13055 14.6905L9.49897 12.3221L7.13055 9.95366ZM12.8148 0.47998C9.56756 0.47998 6.90739 2.99339 6.67357 6.18089C3.48606 6.41472 0.972656 9.07489 0.972656 12.3221C0.972656 15.723 3.72964 18.48 7.13055 18.48C10.3778 18.48 13.038 15.9666 13.2718 12.7791C16.4593 12.5453 18.9727 9.88508 18.9727 6.63788C18.9727 3.23696 16.2157 0.47998 12.8148 0.47998ZM13.1211 10.8902C12.585 8.63929 10.8134 6.86756 8.5624 6.33154C8.71948 4.12004 10.5632 2.37472 12.8148 2.37472C15.1693 2.37472 17.0779 4.2834 17.0779 6.63788C17.0779 8.88939 15.3326 10.7332 13.1211 10.8902ZM11.3937 12.3221C11.3937 14.6766 9.48505 16.5852 7.13055 16.5852C4.77608 16.5852 2.86739 14.6766 2.86739 12.3221C2.86739 9.96759 4.77608 8.05893 7.13055 8.05893C9.48505 8.05893 11.3937 9.96759 11.3937 12.3221ZM1.44634 4.74314C1.44634 2.65027 3.14294 0.953665 5.23581 0.953665H6.65687V2.8484H5.23581C4.18938 2.8484 3.34108 3.6967 3.34108 4.74314V6.16419H1.44634V4.74314ZM16.6042 14.2168V12.7958H18.499V14.2168C18.499 16.3097 16.8023 18.0063 14.7095 18.0063H13.2884V16.1116H14.7095C15.756 16.1116 16.6042 15.2633 16.6042 14.2168Z" fill="white"/>
</svg>
