<svg width="19" height="19" viewBox="0 0 19 19" fill="none" xmlns="http://www.w3.org/2000/svg">
<path d="M4.29025 2.51098C7.82545 -0.385567 13.0504 -0.183895 16.3503 3.11602C19.865 6.63074 19.865 12.3292 16.3503 15.844C12.8356 19.3586 7.13708 19.3586 3.62237 15.844C1.35032 13.5719 0.547017 10.3873 1.21243 7.46997L1.28141 7.18852L3.02239 7.64681C2.39463 10.0407 3.01889 12.6949 4.89516 14.5712C7.70692 17.3829 12.2657 17.3829 15.0774 14.5712C17.8892 11.7594 17.8892 7.20058 15.0774 4.38881C12.5416 1.85293 8.58468 1.60411 5.76998 3.64235L5.5709 3.79182L6.48615 4.70701L2.34957 5.6616L3.30416 1.52503L4.29025 2.51098Z" fill="white"/>
<path d="M10.5488 8.33447H14.4863L9.42382 15.7799V10.6254H5.48633L10.5488 3.17993V8.33447Z" fill="white"/>
</svg>
