<svg width="22" height="22" viewBox="0 0 22 22" fill="none" xmlns="http://www.w3.org/2000/svg">
<path d="M11 22C17.0751 22 22 17.0751 22 11C22 4.92487 17.0751 0 11 0C4.92487 0 0 4.92487 0 11C0 17.0751 4.92487 22 11 22Z" fill="#FF0420"/>
<path d="M11 22C17.0751 22 22 17.0751 22 11C22 4.92487 17.0751 0 11 0C4.92487 0 0 4.92487 0 11C0 17.0751 4.92487 22 11 22Z" fill="black" fill-opacity="0.1"/>
<path d="M7.83402 13.8595C7.1729 13.8595 6.63124 13.7059 6.20901 13.399C5.79232 13.0865 5.58398 12.6425 5.58398 12.0669C5.58398 11.9463 5.59789 11.7982 5.62564 11.6228C5.6979 11.2281 5.80067 10.7539 5.934 10.2002C6.31178 8.69273 7.28681 7.93896 8.85907 7.93896C9.28685 7.93896 9.67018 8.01022 10.0091 8.15274C10.348 8.28977 10.6147 8.49811 10.8091 8.7777C11.0035 9.05177 11.1008 9.38071 11.1008 9.76443C11.1008 9.87955 11.0869 10.0248 11.0591 10.2002C10.9758 10.6881 10.8758 11.1623 10.7591 11.6228C10.5647 12.3738 10.2285 12.9357 9.75074 13.3085C9.27295 13.6758 8.63407 13.8595 7.83402 13.8595ZM7.9507 12.6753C8.26185 12.6753 8.52571 12.5849 8.7424 12.404C8.96464 12.2231 9.12297 11.9463 9.21739 11.5735C9.34517 11.0582 9.44243 10.6086 9.5091 10.2249C9.5313 10.1098 9.5424 9.99196 9.5424 9.87131C9.5424 9.37247 9.2785 9.12303 8.75075 9.12303C8.43959 9.12303 8.17294 9.21348 7.9507 9.39438C7.73405 9.57533 7.57847 9.85216 7.48405 10.2249C7.38403 10.5922 7.28402 11.0417 7.18404 11.5735C7.16179 11.6831 7.15069 11.7982 7.15069 11.9188C7.15069 12.4232 7.41739 12.6753 7.9507 12.6753Z" fill="white"/>
<path d="M11.4042 13.8592C11.344 13.8592 11.2975 13.8399 11.2647 13.8013C11.2373 13.7572 11.2291 13.7076 11.24 13.6525L12.3723 8.27988C12.3833 8.21927 12.4133 8.16967 12.4626 8.13108C12.5118 8.09254 12.5638 8.07324 12.6185 8.07324H14.801C15.4082 8.07324 15.895 8.19998 16.2615 8.45344C16.6335 8.70696 16.8194 9.07337 16.8194 9.55277C16.8194 9.69052 16.8031 9.83382 16.7702 9.98258C16.6335 10.6163 16.3572 11.0847 15.9415 11.3878C15.5313 11.6908 14.9678 11.8424 14.2513 11.8424H13.1436L12.7662 13.6525C12.7552 13.7131 12.7251 13.7627 12.6759 13.8013C12.6267 13.8399 12.5747 13.8592 12.52 13.8592H11.4042ZM14.3087 10.7017C14.5384 10.7017 14.7381 10.6383 14.9077 10.5116C15.0827 10.3848 15.1976 10.203 15.2523 9.96606C15.2687 9.87236 15.2769 9.78972 15.2769 9.7181C15.2769 9.55828 15.2304 9.43705 15.1374 9.35441C15.0444 9.26622 14.8858 9.22217 14.6615 9.22217H13.6769L13.3651 10.7017H14.3087Z" fill="white"/>
</svg>
