<svg width="17" height="16" viewBox="0 0 17 16" fill="none" xmlns="http://www.w3.org/2000/svg">
<g clip-path="url(#clip0_1007_17412)">
<path fill-rule="evenodd" clip-rule="evenodd" d="M15.5353 13.3494C15.5353 13.4862 15.4219 13.5986 15.2808 13.5986H13.6441L13.474 12.8902H14.8104V6.72152C14.8104 6.70527 14.8118 6.68902 14.8146 6.67412L8.52533 2.51699L2.11298 6.67547C2.11851 6.69579 2.12128 6.71746 2.12128 6.73913V12.8875H3.48399L3.35671 13.5959H1.6509C1.51117 13.5959 1.39634 13.4848 1.39634 13.3467V6.99921C1.11135 7.10622 0.847109 7.10757 0.625755 7.03578C0.452822 6.97889 0.307558 6.8773 0.201032 6.74455C0.094505 6.61316 0.0267152 6.45197 0.00596329 6.27588C-0.0244729 6.0009 0.0599184 5.68935 0.297874 5.39812C0.310325 5.38322 0.32416 5.36968 0.339378 5.35749L8.30813 0.0652433C8.39805 -0.01603 8.5364 -0.0241573 8.63601 0.0516977L16.62 5.33311C16.631 5.34123 16.6407 5.35072 16.6504 5.3602C16.9714 5.69884 17.0516 6.07405 16.9741 6.39237C16.9354 6.54814 16.8593 6.69037 16.7542 6.80551C16.649 6.922 16.5148 7.0114 16.3613 7.06558C16.1178 7.15227 15.83 7.14821 15.5367 7.01275C15.5353 9.12586 15.5353 11.2376 15.5353 13.3494ZM7.66758 6.93148C7.49465 6.433 7.3397 5.92776 7.20827 5.41573C7.69802 4.89017 9.58921 4.95925 10.1329 5.40761L9.62933 6.58065C9.90049 6.23253 9.9918 6.08895 10.1523 5.89525C10.2201 5.93859 10.2837 5.98736 10.3446 6.04154C10.4885 6.16887 10.6157 6.30839 10.642 6.5048C10.6586 6.63212 10.6213 6.76081 10.5065 6.8922L9.35126 8.21018C9.20184 8.1858 9.05658 8.15193 8.91547 8.10182C8.98049 7.95146 9.05935 7.78485 9.12575 7.63314L8.70518 8.07743C8.26662 7.98668 7.91384 8.04086 7.58596 8.21153L6.41417 6.83395C6.34499 6.75132 6.31317 6.67005 6.31317 6.58742C6.31456 6.2542 6.8209 5.96704 7.08653 5.85867L7.66758 6.93148ZM9.17003 9.4198L8.94175 8.39575C9.92125 8.57456 11.4915 10.5251 11.9992 11.4123C12.2579 11.8648 12.4848 12.3646 12.6702 12.9213C13.0396 14.2705 12.684 15.5343 11.1885 15.8282C10.2519 16.0124 8.50458 16.026 7.51817 15.9758C6.45844 15.9217 4.81903 15.9244 4.39154 14.8583C3.69981 13.1394 4.96706 11.0913 6.12087 9.83835C6.27305 9.6731 6.42938 9.52003 6.59263 9.37781C7.01321 9.01614 7.4656 8.58675 8.00653 8.40794L7.48497 9.3602L8.24311 8.37544H8.64293L9.17003 9.4198ZM8.68305 10.2596V10.4411C8.8795 10.4614 9.04828 10.5007 9.18663 10.559C9.32774 10.6186 9.44948 10.708 9.55463 10.8272C9.63764 10.9193 9.70128 11.0141 9.74555 11.1103C9.7912 11.2078 9.81334 11.2959 9.81334 11.3758C9.81334 11.4652 9.78013 11.5437 9.71373 11.6088C9.64594 11.6738 9.5657 11.7063 9.47024 11.7063C9.29039 11.7063 9.17279 11.6115 9.12022 11.4205C9.05935 11.197 8.91408 11.0466 8.68305 10.9735V12.0923C8.90993 12.1533 9.09117 12.2088 9.22536 12.2589C9.36094 12.3091 9.4813 12.3809 9.58645 12.477C9.69989 12.5746 9.78843 12.6938 9.84931 12.8306C9.91018 12.9687 9.94061 13.1177 9.94061 13.2816C9.94061 13.4862 9.89219 13.6772 9.79397 13.8546C9.69574 14.0334 9.55186 14.1783 9.36094 14.2921C9.17003 14.4046 8.94452 14.4723 8.68166 14.4926V14.6755C8.68166 14.7811 8.6706 14.8583 8.64984 14.9071C8.62909 14.9559 8.58344 14.9802 8.5115 14.9802C8.44647 14.9802 8.39944 14.9613 8.37315 14.922C8.34686 14.8827 8.33441 14.8218 8.33441 14.7391V14.5007C8.12136 14.4777 7.93321 14.4276 7.77273 14.3531C7.61225 14.2772 7.47805 14.1838 7.37152 14.0727C7.265 13.9603 7.18476 13.8438 7.13495 13.7232C7.08376 13.6027 7.05748 13.4835 7.05748 13.3656C7.05748 13.2803 7.09068 13.2017 7.16124 13.134C7.22903 13.0649 7.3148 13.0297 7.41718 13.0297C7.50018 13.0297 7.56936 13.0486 7.62608 13.0852C7.6828 13.1231 7.72154 13.176 7.74367 13.2437C7.7921 13.39 7.83498 13.5038 7.87234 13.581C7.90969 13.6596 7.96503 13.73 8.03974 13.795C8.11444 13.8587 8.21267 13.9088 8.33441 13.9427V12.6924C8.08816 12.626 7.88479 12.5515 7.72016 12.4703C7.55552 12.389 7.42133 12.2725 7.31895 12.1221C7.21658 11.9718 7.16539 11.7781 7.16539 11.541C7.16539 11.2322 7.265 10.9789 7.4656 10.7825C7.6662 10.5847 7.95534 10.4709 8.33441 10.4384V10.2623C8.33441 10.112 8.39252 10.0361 8.50735 10.0361C8.62494 10.0402 8.68305 10.1133 8.68305 10.2596ZM8.33441 11.9948V10.9653C8.18085 11.01 8.06049 11.0696 7.97471 11.1428C7.88894 11.2159 7.84605 11.3284 7.84605 11.4774C7.84605 11.6182 7.88617 11.7266 7.96641 11.7984C8.04665 11.8702 8.16978 11.9366 8.33441 11.9948ZM8.68305 12.7926V13.9711C8.86705 13.9359 9.00954 13.8627 9.11192 13.7544C9.21153 13.6447 9.26272 13.5173 9.26272 13.3724C9.26272 13.2166 9.2143 13.0961 9.11607 13.0107C9.01784 12.924 8.87396 12.8522 8.68305 12.7926Z" fill="white"/>
</g>
<defs>
<clipPath id="clip0_1007_17412">
<rect width="17" height="16" fill="white"/>
</clipPath>
</defs>
</svg>
