<svg width="18" height="19" viewBox="0 0 18 19" fill="none" xmlns="http://www.w3.org/2000/svg">
<path d="M11.25 0.47998C12.9897 0.47998 14.4 1.89028 14.4 3.62999C14.4 4.11348 14.2911 4.57152 14.0964 4.98092L17.1 4.97999C17.5971 4.97999 18 5.38293 18 5.87999V9.47997C18 9.97704 17.5971 10.38 17.1 10.38H16.2V17.58C16.2 18.077 15.7971 18.48 15.3 18.48H2.7C2.20295 18.48 1.8 18.077 1.8 17.58V10.38H0.899999C0.402948 10.38 0 9.97704 0 9.47997V5.87999C0 5.38293 0.402948 4.97999 0.899999 4.97999L3.90358 4.98092C3.70892 4.57152 3.6 4.11348 3.6 3.62999C3.6 1.89028 5.0103 0.47998 6.74999 0.47998C7.63201 0.47998 8.42932 0.842465 9.00109 1.42658C9.5707 0.842465 10.368 0.47998 11.25 0.47998ZM14.4 10.38H3.6V16.68H14.4V10.38ZM16.2 6.77999H1.8V8.57997H16.2V6.77999ZM6.74999 2.27998C6.00442 2.27998 5.39999 2.8844 5.39999 3.62999C5.39999 4.33172 5.9354 4.90839 6.61998 4.9738L6.74999 4.97999H8.10001V3.62999C8.10001 2.92825 7.5646 2.35158 6.88001 2.28617L6.74999 2.27998ZM11.25 2.27998L11.12 2.28617C10.4782 2.34749 9.96751 2.85817 9.90613 3.49997L9.90001 3.62999V4.97999H11.25L11.38 4.9738C12.0646 4.90839 12.6 4.33172 12.6 3.62999C12.6 2.92825 12.0646 2.35158 11.38 2.28617L11.25 2.27998Z" fill="white"/>
</svg>
