<svg width="18" height="18" viewBox="0 0 18 18" fill="none" xmlns="http://www.w3.org/2000/svg">
<path d="M9 -0.000488281C13.9705 -0.000488281 18 4.02895 18 8.99951C18 13.97 13.9705 17.9995 9 17.9995C4.02943 17.9995 0 13.97 0 8.99951H1.8C1.8 12.976 5.02355 16.1995 9 16.1995C12.9765 16.1995 16.2 12.976 16.2 8.99951C16.2 5.02306 12.9765 1.79951 9 1.79951C6.5252 1.79951 4.34202 3.04812 3.04606 4.94973L5.4 4.94951V6.74951H0V1.34951H1.8L1.7999 3.59877C3.44191 1.41319 6.05586 -0.000488281 9 -0.000488281ZM9.9 4.49951L9.89982 8.62601L12.8183 11.5451L11.5456 12.8179L8.09982 9.37121L8.1 4.49951H9.9Z" fill="white"/>
</svg>
