<svg width="16" height="19" viewBox="0 0 16 19" fill="none" xmlns="http://www.w3.org/2000/svg">
<path d="M12.4444 12.9254H14.2222V2.25863H5.33321V4.03643H12.4444V12.9254ZM12.4444 14.7032V17.3692C12.4444 17.8604 12.0444 18.2588 11.5494 18.2588H0.894818C0.400537 18.2588 0 17.8636 0 17.3692L0.00231109 4.9261C0.00240887 4.43475 0.402351 4.03643 0.897271 4.03643H3.55541V1.36973C3.55541 0.878803 3.95339 0.480835 4.44431 0.480835H15.1111C15.602 0.480835 16 0.878803 16 1.36973V13.8143C16 14.3052 15.602 14.7032 15.1111 14.7032H12.4444ZM1.77995 5.81422L1.77796 16.481H10.6666V5.81422H1.77995ZM3.55541 12.9254H7.55547C7.8009 12.9254 7.99992 12.7264 7.99992 12.4809C7.99992 12.2355 7.8009 12.0365 7.55547 12.0365H4.88876C3.66145 12.0365 2.66652 11.0415 2.66652 9.81423C2.66652 8.58693 3.66145 7.59199 4.88876 7.59199H5.33321V6.70312H7.11102V7.59199H8.88882V9.36979H4.88876C4.6433 9.36979 4.44431 9.56881 4.44431 9.81423C4.44431 10.0597 4.6433 10.2587 4.88876 10.2587H7.55547C8.78277 10.2587 9.77771 11.2536 9.77771 12.4809C9.77771 13.7082 8.78277 14.7032 7.55547 14.7032H7.11102V15.5921H5.33321V14.7032H3.55541V12.9254Z" fill="white"/>
</svg>
