<svg width="18" height="19" viewBox="0 0 18 19" fill="none" xmlns="http://www.w3.org/2000/svg">
<path d="M0.985973 10.222C0.985973 14.7407 4.64914 18.4038 9.16779 18.4038C13.6865 18.4038 17.3496 14.7407 17.3496 10.222C17.3496 7.54547 16.0644 5.16914 14.0775 3.67637L14.0774 5.89307C15.0955 7.04687 15.7132 8.56231 15.7132 10.222C15.7132 13.8369 12.7827 16.7674 9.16779 16.7674C5.55282 16.7674 2.62234 13.8369 2.62234 10.222C2.62234 8.5619 3.24039 7.04614 4.25886 5.89225L4.25886 3.6758C2.2715 5.16849 0.985973 7.54515 0.985973 10.222ZM5.89506 4.49472L8.34961 4.49472L8.34961 11.0402L9.98597 11.0402L9.98597 4.49472L12.4405 4.49472L9.16779 0.403809L5.89506 4.49472Z" fill="white"/>
</svg>
