<svg width="19" height="19" viewBox="0 0 19 19" fill="none" xmlns="http://www.w3.org/2000/svg">
<path d="M9.98634 18.4799C5.01577 18.4799 0.986328 14.4506 0.986328 9.47995C0.986328 4.50941 5.01577 0.47998 9.98634 0.47998C14.9569 0.47998 18.9863 4.50941 18.9863 9.47995C18.9863 14.4506 14.9569 18.4799 9.98634 18.4799ZM9.98634 16.6799C13.9628 16.6799 17.1863 13.4564 17.1863 9.47995C17.1863 5.50352 13.9628 2.27998 9.98634 2.27998C6.00987 2.27998 2.78633 5.50352 2.78633 9.47995C2.78633 13.4564 6.00987 16.6799 9.98634 16.6799ZM5.48632 10.3799H13.5863V12.1799H9.98634V14.8799L5.48632 10.3799ZM9.98634 6.77997V4.07998L14.4863 8.57995H6.38632V6.77997H9.98634Z" fill="white"/>
</svg>
