<svg width="19" height="19" viewBox="0 0 19 19" fill="none" xmlns="http://www.w3.org/2000/svg">
<path d="M11.7863 0.47998C15.7628 0.47998 18.9863 3.70353 18.9863 7.67995C18.9863 10.6001 17.2479 13.1142 14.7495 14.2439C13.6199 16.742 11.106 18.4799 8.18634 18.4799C4.20987 18.4799 0.986328 15.2564 0.986328 11.2799C0.986328 8.36026 2.72424 5.84643 5.22203 4.71656C6.35206 2.21839 8.8662 0.47998 11.7863 0.47998ZM8.18634 5.87998C5.20399 5.87998 2.78633 8.29762 2.78633 11.2799C2.78633 14.2623 5.20399 16.6799 8.18634 16.6799C11.1687 16.6799 13.5863 14.2623 13.5863 11.2799C13.5863 8.29762 11.1687 5.87998 8.18634 5.87998ZM9.08634 6.77997V7.67995H10.8863V9.47995H7.28632C7.0378 9.47995 6.83632 9.68146 6.83632 9.92995C6.83632 10.1509 6.99551 10.3346 7.20544 10.3727L7.28632 10.3799H9.08634C10.329 10.3799 11.3363 11.3873 11.3363 12.6299C11.3363 13.8726 10.329 14.8799 9.08634 14.8799V15.7799H7.28632V14.8799H5.48632V13.0799H9.08634C9.33483 13.0799 9.53634 12.8785 9.53634 12.6299C9.53634 12.4091 9.37713 12.2253 9.16725 12.1872L9.08634 12.1799H7.28632C6.04368 12.1799 5.03632 11.1726 5.03632 9.92995C5.03632 8.68732 6.04368 7.67995 7.28632 7.67995V6.77997H9.08634ZM11.7863 2.27998C10.1812 2.27998 8.73957 2.98032 7.75051 4.09212C7.89513 4.08432 8.04022 4.07998 8.18634 4.07998C12.1628 4.07998 15.3863 7.30352 15.3863 11.2799C15.3863 11.4264 15.3819 11.5718 15.3734 11.716C16.4858 10.7272 17.1863 9.28537 17.1863 7.67995C17.1863 4.69764 14.7687 2.27998 11.7863 2.27998Z" fill="white"/>
</svg>
