<svg width="17" height="17" viewBox="0 0 17 17" fill="none" xmlns="http://www.w3.org/2000/svg">
<path d="M8.25 12.75C5.76472 12.75 3.75 10.7353 3.75 8.25C3.75 5.76472 5.76472 3.75 8.25 3.75C10.7353 3.75 12.75 5.76472 12.75 8.25C12.75 10.7353 10.7353 12.75 8.25 12.75ZM7.5 0H9V2.25H7.5V0ZM7.5 14.25H9V16.5H7.5V14.25ZM1.88604 2.9467L2.9467 1.88604L4.53769 3.47703L3.47703 4.53769L1.88604 2.9467ZM11.9623 13.023L13.023 11.9623L14.614 13.5533L13.5533 14.614L11.9623 13.023ZM13.5533 1.88604L14.614 2.9467L13.023 4.53769L11.9623 3.47703L13.5533 1.88604ZM3.47703 11.9623L4.53769 13.023L2.9467 14.614L1.88604 13.5533L3.47703 11.9623ZM16.5 7.5V9H14.25V7.5H16.5ZM2.25 7.5V9H0V7.5H2.25Z" fill="#EFEFEF"/>
</svg>
