<svg width="106" height="107" viewBox="0 0 106 107" fill="none" xmlns="http://www.w3.org/2000/svg">
<circle cx="53" cy="53" r="53" transform="matrix(-1 0 0 1 106 0.47998)" fill="#3C3C3C" fill-opacity="0.6"/>
<g clip-path="url(#clip0_491_15325)">
<path d="M52.8653 81.3457C58.4032 81.3457 63.8167 79.7035 68.4213 76.6269C73.0259 73.5502 76.6147 69.1772 78.7339 64.0609C80.8532 58.9445 81.4077 53.3147 80.3273 47.8832C79.2469 42.4517 76.5802 37.4626 72.6643 33.5467C68.7484 29.6309 63.7593 26.9641 58.3278 25.8837C52.8964 24.8033 47.2665 25.3578 42.1502 27.4771C37.0338 29.5963 32.6608 33.1852 29.5842 37.7898C26.5075 42.3943 24.8653 47.8078 24.8653 53.3457C24.8565 57.0252 25.5746 60.6702 26.9786 64.0713C28.3826 67.4725 30.4448 70.5627 33.0466 73.1645C35.6484 75.7663 38.7386 77.8284 42.1397 79.2324C45.5408 80.6364 49.1858 81.3546 52.8653 81.3457Z" fill="#2775CA"/>
<path d="M60.5651 57.7757C60.5651 53.6919 58.1151 52.2919 53.2151 51.7095C49.7151 51.2433 49.0151 50.3095 49.0151 48.6757C49.0151 47.0419 50.1813 45.9919 52.5151 45.9919C54.6151 45.9919 55.7813 46.6919 56.3651 48.4419C56.4251 48.611 56.5356 48.7575 56.6816 48.8619C56.8275 48.9663 57.0019 49.0235 57.1813 49.0257H59.0475C59.1553 49.0282 59.2626 49.0088 59.3628 48.9686C59.4629 48.9285 59.5539 48.8685 59.6302 48.7922C59.7064 48.7159 59.7665 48.6249 59.8066 48.5247C59.8467 48.4246 59.8662 48.3174 59.8637 48.2095V48.0933C59.638 46.8289 59.001 45.6744 58.0516 44.8093C57.1022 43.9442 55.8936 43.417 54.6137 43.3095V40.5095C54.6137 40.0433 54.2637 39.6933 53.6799 39.5757H51.9299C51.4637 39.5757 51.1137 39.9257 50.9961 40.5095V43.1933C47.4961 43.6595 45.2799 45.9933 45.2799 48.9095C45.2799 52.7595 47.6137 54.2757 52.5137 54.8595C55.7799 55.4433 56.8299 56.1433 56.8299 58.0095C56.8299 59.8757 55.1961 61.1595 52.9799 61.1595C49.9461 61.1595 48.8961 59.8757 48.5461 58.1257C48.5111 57.9331 48.4109 57.7583 48.2622 57.6308C48.1136 57.5033 47.9256 57.4309 47.7299 57.4257H45.7461C45.6382 57.4232 45.531 57.4426 45.4308 57.4827C45.3307 57.5229 45.2397 57.583 45.1634 57.6593C45.0871 57.7356 45.0271 57.8265 44.987 57.9266C44.9468 58.0268 44.9274 58.1341 44.9299 58.2419V58.3581C45.3961 61.2743 47.2637 63.3743 51.1137 63.9581V66.7581C51.1137 67.2243 51.4637 67.5743 52.0475 67.6919H53.7933C54.2595 67.6919 54.6095 67.3419 54.7271 66.7581V63.9581C58.2271 63.3743 60.5609 60.9243 60.5609 57.7743L60.5651 57.7757Z" fill="white"/>
<path d="M46.9146 70.0282C43.5569 68.7977 40.658 66.5657 38.61 63.634C36.5621 60.7024 35.4639 57.2125 35.4639 53.6363C35.4639 50.0602 36.5621 46.5704 38.61 43.6387C40.658 40.707 43.5569 38.475 46.9146 37.2444C47.1381 37.147 47.3256 36.9823 47.4511 36.7733C47.5766 36.5643 47.6338 36.3213 47.6146 36.0782V34.4444C47.6308 34.2304 47.5687 34.0178 47.44 33.846C47.3113 33.6743 47.1246 33.5551 46.9146 33.5106C46.7504 33.4932 46.5852 33.5343 46.4484 33.6269C42.204 34.9798 38.4998 37.6474 35.8713 41.2441C33.2428 44.8407 31.8262 49.1801 31.8262 53.6349C31.8262 58.0897 33.2428 62.4291 35.8713 66.0258C38.4998 69.6225 42.204 72.2901 46.4484 73.643C46.5454 73.6992 46.6543 73.7316 46.7662 73.7376C46.8781 73.7436 46.9898 73.7231 47.0922 73.6776C47.1947 73.6321 47.2849 73.563 47.3555 73.476C47.4261 73.3889 47.475 73.2865 47.4984 73.1769C47.6146 73.0607 47.6146 72.9431 47.6146 72.7107V71.074C47.5773 70.8605 47.4957 70.6572 47.3752 70.4771C47.2546 70.297 47.0978 70.1441 46.9146 70.0282ZM59.2808 33.6282C59.1838 33.572 59.075 33.5396 58.963 33.5336C58.8511 33.5276 58.7394 33.5482 58.637 33.5937C58.5345 33.6392 58.4443 33.7082 58.3737 33.7953C58.3032 33.8823 58.2542 33.9848 58.2308 34.0944C58.1146 34.2106 58.1146 34.3282 58.1146 34.5606V36.1944C58.1347 36.4293 58.2083 36.6565 58.3296 36.8586C58.4509 37.0607 58.6168 37.2324 58.8146 37.3606C62.1724 38.5912 65.0712 40.8232 67.1192 43.7549C69.1671 46.6865 70.2653 50.1764 70.2653 53.7525C70.2653 57.3287 69.1671 60.8185 67.1192 63.7502C65.0712 66.6819 62.1724 68.9139 58.8146 70.1444C58.5911 70.2418 58.4036 70.4065 58.2781 70.6156C58.1526 70.8246 58.0955 71.0676 58.1146 71.3106V72.9444C58.0984 73.1585 58.1605 73.3711 58.2892 73.5428C58.4179 73.7146 58.6046 73.8337 58.8146 73.8782C58.9789 73.8957 59.144 73.8546 59.2808 73.7621C63.5263 72.3933 67.2284 69.7133 69.8545 66.1075C72.4805 62.5017 73.8953 58.1558 73.8953 53.6951C73.8953 49.2344 72.4805 44.8886 69.8545 41.2828C67.2284 37.677 63.5263 34.997 59.2808 33.6282Z" fill="white"/>
</g>
<defs>
<clipPath id="clip0_491_15325">
<rect width="56" height="56" fill="white" transform="translate(24.8652 25.3457)"/>
</clipPath>
</defs>
</svg>
