<svg width="20" height="21" viewBox="0 0 20 21" fill="none" xmlns="http://www.w3.org/2000/svg">
    <g clip-path="url(#clip0_3471_29688)">
    <path d="M10 20.791C11.9778 20.791 13.9112 20.2045 15.5557 19.1057C17.2002 18.0069 18.482 16.4451 19.2388 14.6179C19.9957 12.7906 20.1937 10.7799 19.8079 8.84012C19.422 6.90031 18.4696 5.11848 17.0711 3.71995C15.6726 2.32143 13.8907 1.36902 11.9509 0.983167C10.0111 0.597315 8.00046 0.795348 6.1732 1.55222C4.34593 2.3091 2.78415 3.59083 1.68533 5.23532C0.586519 6.87981 2.89416e-05 8.81321 2.89416e-05 10.791C-0.00313632 12.1051 0.253361 13.4069 0.754787 14.6216C1.25621 15.8363 1.99269 16.9399 2.9219 17.8691C3.85112 18.7984 4.95477 19.5348 6.16945 20.0363C7.38414 20.5377 8.68592 20.7942 10 20.791Z" fill="#2775CA"/>
    <path d="M12.7481 12.3731C12.7481 10.9146 11.8731 10.4146 10.1231 10.2066C8.87312 10.0401 8.62312 9.70656 8.62312 9.12306C8.62312 8.53956 9.03962 8.16457 9.87312 8.16457C10.6231 8.16457 11.0396 8.41457 11.2481 9.03957C11.2696 9.09995 11.309 9.15228 11.3612 9.18956C11.4133 9.22684 11.4756 9.24726 11.5396 9.24806H12.2061C12.2447 9.24895 12.283 9.24201 12.3187 9.22768C12.3545 9.21334 12.387 9.19191 12.4142 9.16466C12.4415 9.13741 12.4629 9.10491 12.4772 9.06914C12.4916 9.03337 12.4985 8.99508 12.4976 8.95656V8.91505C12.417 8.46347 12.1895 8.05116 11.8504 7.7422C11.5114 7.43324 11.0797 7.24493 10.6226 7.20656V6.20656C10.6226 6.04006 10.4976 5.91505 10.2891 5.87305H9.66414C9.49764 5.87305 9.37264 5.99806 9.33064 6.20656V7.16505C8.08064 7.33155 7.28914 8.16506 7.28914 9.20656C7.28914 10.5816 8.12263 11.1231 9.87263 11.3316C11.0391 11.5401 11.4141 11.7901 11.4141 12.4566C11.4141 13.1231 10.8306 13.5816 10.0391 13.5816C8.95564 13.5816 8.58064 13.1231 8.45564 12.4981C8.44315 12.4293 8.40735 12.3668 8.35426 12.3213C8.30118 12.2758 8.23405 12.2499 8.16414 12.2481H7.45564C7.41712 12.2472 7.3788 12.2541 7.34303 12.2684C7.30726 12.2828 7.27479 12.3042 7.24754 12.3315C7.2203 12.3587 7.19886 12.3912 7.18452 12.427C7.17019 12.4627 7.16325 12.501 7.16414 12.5396V12.581C7.33064 13.6225 7.99763 14.3725 9.37263 14.581V15.581C9.37263 15.7475 9.49763 15.8726 9.70613 15.9146H10.3296C10.4961 15.9146 10.6211 15.7895 10.6631 15.581V14.581C11.9131 14.3725 12.7466 13.4975 12.7466 12.3725L12.7481 12.3731Z" fill="white"/>
    <path d="M7.87311 16.7495C6.67391 16.31 5.6386 15.5128 4.90719 14.4658C4.17578 13.4188 3.78356 12.1724 3.78356 10.8952C3.78356 9.61801 4.17578 8.37164 4.90719 7.32462C5.6386 6.27759 6.67391 5.48044 7.87311 5.04096C7.95293 5.00617 8.0199 4.94735 8.06471 4.8727C8.10952 4.79804 8.12994 4.71126 8.12311 4.62445V4.04096C8.12889 3.96452 8.10672 3.88858 8.06074 3.82724C8.01477 3.7659 7.9481 3.72335 7.87311 3.70746C7.81445 3.70122 7.75547 3.71592 7.7066 3.74896C6.19075 4.23215 4.86783 5.18486 3.92908 6.46939C2.99032 7.75392 2.48438 9.3037 2.48438 10.8947C2.48438 12.4857 2.99032 14.0355 3.92908 15.32C4.86783 16.6045 6.19075 17.5573 7.7066 18.0405C7.74124 18.0605 7.78012 18.0721 7.82008 18.0742C7.86005 18.0764 7.89996 18.069 7.93654 18.0528C7.97312 18.0366 8.00533 18.0119 8.03055 17.9808C8.05576 17.9497 8.07326 17.9131 8.0816 17.874C8.1231 17.8325 8.12311 17.7905 8.12311 17.7075V17.123C8.10979 17.0467 8.08065 16.9741 8.0376 16.9098C7.99454 16.8454 7.93852 16.7908 7.87311 16.7495ZM12.2896 3.74945C12.255 3.72939 12.2161 3.71781 12.1761 3.71567C12.1362 3.71352 12.0962 3.72088 12.0597 3.73712C12.0231 3.75336 11.9909 3.77803 11.9657 3.80911C11.9404 3.8402 11.9229 3.87681 11.9146 3.91596C11.8731 3.95746 11.8731 3.99946 11.8731 4.08246V4.66596C11.8803 4.74984 11.9065 4.83097 11.9499 4.90315C11.9932 4.97534 12.0525 5.03667 12.1231 5.08246C13.3223 5.52194 14.3576 6.31908 15.089 7.36611C15.8204 8.41313 16.2126 9.65952 16.2126 10.9367C16.2126 12.2139 15.8204 13.4603 15.089 14.5073C14.3576 15.5543 13.3223 16.3515 12.1231 16.791C12.0433 16.8257 11.9763 16.8846 11.9315 16.9592C11.8867 17.0339 11.8663 17.1207 11.8731 17.2075V17.791C11.8673 17.8674 11.8895 17.9433 11.9355 18.0047C11.9814 18.066 12.0481 18.1086 12.1231 18.1245C12.1818 18.1307 12.2407 18.116 12.2896 18.083C13.8059 17.5941 15.128 16.637 16.0659 15.3492C17.0038 14.0614 17.5091 12.5093 17.5091 10.9162C17.5091 9.32308 17.0038 7.77102 16.0659 6.48323C15.128 5.19544 13.8059 4.23829 12.2896 3.74945Z" fill="white"/>
    </g>
    <defs>
    <clipPath id="clip0_3471_29688">
    <rect width="20" height="20" fill="white" transform="translate(0 0.791016)"/>
    </clipPath>
    </defs>
    </svg>
    