<svg width="21" height="20" viewBox="0 0 21 20" fill="none" xmlns="http://www.w3.org/2000/svg">
    <g clip-path="url(#clip0_3471_29693)">
    <path d="M20.6186 12.4189C20.1403 14.3379 19.1037 16.0719 17.6398 17.4017C16.176 18.7315 14.3506 19.5973 12.3947 19.8896C10.4387 20.1819 8.44001 19.8877 6.65131 19.044C4.86261 18.2003 3.36427 16.8452 2.3458 15.1499C1.32732 13.4546 0.834457 11.4954 0.929533 9.52002C1.02461 7.54463 1.70335 5.6418 2.87993 4.05218C4.05651 2.46256 5.67806 1.25756 7.53952 0.589569C9.40097 -0.0784184 11.4187 -0.179385 13.3376 0.299437C15.91 0.941368 18.1222 2.57875 19.4876 4.8515C20.8531 7.12425 21.2599 9.84626 20.6186 12.4189Z" fill="#50AF95"/>
    <path d="M12.1673 11.3375C12.0978 11.3425 11.7383 11.364 10.9374 11.364C10.3 11.364 9.84756 11.345 9.68758 11.3375C7.22488 11.2291 5.38811 10.8006 5.38811 10.2877C5.38811 9.77474 7.22638 9.34629 9.68758 9.2378V10.9126C9.84856 10.9241 10.31 10.9516 10.9469 10.9516C11.7118 10.9516 12.0968 10.9196 12.1638 10.9136V9.2368C14.6215 9.34629 16.4557 9.77523 16.4557 10.2867C16.4557 10.7981 14.622 11.2276 12.1638 11.3365L12.1673 11.3375ZM12.1673 9.06332V7.56351H15.5983V5.2793H6.259V7.56401H9.68808V9.06382C6.90092 9.19181 4.80469 9.74424 4.80469 10.4057C4.80469 11.0671 6.90092 11.619 9.68808 11.7475V16.5504H12.1668V11.746C14.9479 11.618 17.0402 11.0666 17.0402 10.4052C17.0402 9.74374 14.9484 9.19181 12.1668 9.06382L12.1673 9.06332Z" fill="white"/>
    </g>
    <defs>
    <clipPath id="clip0_3471_29693">
    <rect width="19.9975" height="20" fill="white" transform="translate(0.921875)"/>
    </clipPath>
    </defs>
    </svg>
    