<svg width="102" height="103" viewBox="0 0 102 103" fill="none" xmlns="http://www.w3.org/2000/svg">
<circle cx="51" cy="51" r="51" transform="matrix(-1 0 0 1 102 0.47998)" fill="#3C3C3C" fill-opacity="0.6"/>
<g clip-path="url(#clip0_491_15318)">
<path d="M77.952 60.3323C76.6126 65.7061 73.7096 70.562 69.6103 74.2858C65.511 78.0097 60.3994 80.4342 54.922 81.2529C49.4446 82.0715 43.8475 81.2474 38.8386 78.8848C33.8296 76.5223 29.6337 72.7273 26.7816 67.98C23.9295 63.2327 22.5493 57.7461 22.8156 52.2144C23.0818 46.6826 24.9826 41.354 28.2774 36.9025C31.5722 32.451 36.1131 29.0766 41.3259 27.206C46.5386 25.3354 52.189 25.0526 57.5624 26.3935C64.7662 28.1911 70.9612 32.7764 74.7848 39.1409C78.6084 45.5054 79.7477 53.1279 77.952 60.3323Z" fill="#50AF95"/>
<path d="M54.278 57.3049C54.0834 57.3189 53.0768 57.3791 50.834 57.3791C49.049 57.3791 47.782 57.3259 47.334 57.3049C40.4376 57.0011 35.294 55.8013 35.294 54.3649C35.294 52.9285 40.4418 51.7287 47.334 51.4249V56.1149C47.7848 56.1471 49.077 56.2241 50.8606 56.2241C53.0026 56.2241 54.0806 56.1345 54.2682 56.1177V51.4221C61.1506 51.7287 66.2872 52.9299 66.2872 54.3621C66.2872 55.7943 61.152 56.9969 54.2682 57.3021L54.278 57.3049ZM54.278 50.9363V46.7363H63.8862V40.3397H37.7328V46.7377H47.3354V50.9377C39.5304 51.2961 33.6602 52.8431 33.6602 54.6953C33.6602 56.5475 39.5304 58.0931 47.3354 58.4529V71.9027H54.2766V58.4487C62.0648 58.0903 67.9238 56.5461 67.9238 54.6939C67.9238 52.8417 62.0662 51.2961 54.2766 50.9377L54.278 50.9363Z" fill="white"/>
</g>
<defs>
<clipPath id="clip0_491_15318">
<rect width="56" height="56.007" fill="white" transform="translate(22.791 25.5546)"/>
</clipPath>
</defs>
</svg>
