<svg width="18" height="20" viewBox="0 0 18 20" fill="none" xmlns="http://www.w3.org/2000/svg">
<g clip-path="url(#clip0_1007_17407)">
<path fill-rule="evenodd" clip-rule="evenodd" d="M13.3992 9.967H15.9623V9.48039C15.8157 8.94808 15.5823 8.58722 15.2801 8.36773C14.9778 8.14864 14.586 8.05491 14.126 8.05803L3.61434 8.06038C3.35549 8.06038 3.14602 7.85456 3.14602 7.6011C3.14602 7.34725 3.35549 7.14183 3.61434 7.14183L14.1137 7.143C14.7743 7.13675 15.3573 7.28437 15.836 7.63234C15.879 7.66359 15.9212 7.69639 15.9623 7.73076V7.45465C15.9623 7.02583 15.7819 6.63373 15.4915 6.34903C15.2036 6.06432 14.8046 5.88819 14.365 5.88819H14.0269L13.9835 5.88624L13.8182 6.49392H12.6824L13.3562 4.01515C12.79 3.86675 12.4523 3.29265 12.604 2.7373L8.85624 1.75275C8.70451 2.30771 8.11951 2.63967 7.55403 2.49087L6.45372 6.49392H5.28252L7.0646 0L15.0173 2.08979L14.2331 4.96924H14.365C15.0599 4.96924 15.6935 5.25004 16.153 5.70034C16.6134 6.14985 16.8989 6.77237 16.8989 7.45465V9.99278C17.1693 10.0455 17.411 10.1767 17.5986 10.3607C17.8459 10.6032 18 10.9391 18 11.3089V14.3297C18 14.7152 17.8391 15.0659 17.5811 15.3186C17.3967 15.4994 17.1617 15.6318 16.8989 15.6923V17.5146C16.8989 18.1965 16.613 18.8186 16.1534 19.2693L16.1239 19.2959C15.666 19.7305 15.0443 20 14.365 20H2.53394C1.83823 20 1.20385 19.72 0.744292 19.2697C0.285531 18.8198 0 18.1984 0 17.5146V7.45465C0 6.77042 0.285133 6.14907 0.743894 5.69917C1.20265 5.24926 1.83664 4.96924 2.53394 4.96924H4.01217L4.01854 4.96964L5.19531 0.683447L6.31792 0.978305L4.77558 6.49392H3.6L3.76646 5.88819H2.53394C2.09549 5.88819 1.69606 6.06471 1.40615 6.34864C1.11664 6.63256 0.936637 7.02466 0.936637 7.45465V17.5146C0.936637 17.9446 1.11704 18.3359 1.40695 18.6198C1.69686 18.9045 2.09668 19.0814 2.53394 19.0814H14.365C14.7923 19.0814 15.1829 18.9135 15.4696 18.6421L15.4912 18.6194C15.7815 18.3351 15.9623 17.943 15.9623 17.5146V15.7294H13.3992C12.6076 15.7294 11.8876 15.4115 11.3675 14.9015L11.3185 14.8488C10.8263 14.3411 10.5228 13.6568 10.5228 12.9086V12.7875C10.5228 12.0146 10.8466 11.3101 11.3675 10.7981L11.3727 10.793C11.8943 10.2833 12.6119 9.967 13.3992 9.967ZM9.58779 6.33262C10.2723 6.51227 10.9772 6.11392 11.1604 5.44219C11.344 4.77085 10.937 4.07959 10.2524 3.89994C9.56748 3.72029 8.86261 4.11865 8.67943 4.79038C8.49624 5.46172 8.90323 6.15258 9.58779 6.33262ZM14.4279 12.0705L14.4303 12.0724C14.8655 12.5004 14.8643 13.1968 14.4295 13.6244L14.4275 13.6268C13.991 14.0536 13.281 14.0524 12.8445 13.626L12.8425 13.624C12.4073 13.196 12.4085 12.4997 12.8433 12.0716L12.8453 12.0697C13.2818 11.6428 13.9918 11.6436 14.4279 12.0705Z" fill="white"/>
</g>
<defs>
<clipPath id="clip0_1007_17407">
<rect width="18" height="20" fill="white"/>
</clipPath>
</defs>
</svg>
